<?xml version="1.0" encoding="UTF-8"?>
<svg width="63px" height="45px" viewBox="0 0 63 45" version="1.1" xmlns="http://www.w3.org/2000/svg" xmlns:xlink="http://www.w3.org/1999/xlink">
    <!-- Generator: Sketch 47 (45396) - http://www.bohemiancoding.com/sketch -->
    <title>right-arrow copy</title>
    <desc>Created with Sketch.</desc>
    <defs></defs>
    <g id="Page-1" stroke="none" stroke-width="1" fill="none" fill-rule="evenodd">
        <g id="Podushka" transform="translate(-179.000000, -3668.000000)" fill-rule="nonzero" fill="#0766AE">
            <g id="Group-24" transform="translate(179.000000, 3572.000000)">
                <g id="Group-23" transform="translate(0.000000, 96.000000)">
                    <g id="right-arrow-copy" transform="translate(31.500000, 22.500000) scale(-1, 1) translate(-31.500000, -22.500000) ">
                        <path d="M42.41,1.014 C41.552,0.126 40.124,0.126 39.236,1.014 C38.378,1.872 38.378,3.3 39.236,4.156 L55.33,20.25 L2.222,20.25 C0.984,20.252 0,21.236 0,22.474 C0,23.712 0.984,24.728 2.222,24.728 L55.33,24.728 L39.236,40.792 C38.378,41.68 38.378,43.11 39.236,43.966 C40.124,44.854 41.554,44.854 42.41,43.966 L62.314,24.062 C63.202,23.204 63.202,21.776 62.314,20.92 L42.41,1.014 Z" id="Shape"></path>
                    </g>
                </g>
            </g>
        </g>
    </g>
</svg>