<?xml version="1.0" encoding="UTF-8"?>
<svg width="21px" height="21px" viewBox="0 0 21 21" version="1.1" xmlns="http://www.w3.org/2000/svg" xmlns:xlink="http://www.w3.org/1999/xlink">
    <!-- Generator: Sketch 47 (45396) - http://www.bohemiancoding.com/sketch -->
    <title>instagram</title>
    <desc>Created with Sketch.</desc>
    <defs></defs>
    <g id="Page-1" stroke="none" stroke-width="1" fill="none" fill-rule="evenodd">
        <g id="Podushka" transform="translate(-55.000000, -5339.000000)" fill-rule="nonzero" fill="#FFFFFF">
            <g id="Group-45" transform="translate(0.000000, 4021.000000)">
                <g id="Group-44">
                    <g id="Group-38" transform="translate(0.000000, 1299.000000)">
                        <g id="Group-26" transform="translate(55.000000, 19.000000)">
                            <g id="instagram">
                                <path d="M13.5928333,5.572 L7.3507,5.572 C6.35436667,5.572 5.54376667,6.3826 5.54376667,7.37893333 L5.54376667,13.6210667 C5.54376667,14.6174 6.35436667,15.4282333 7.3507,15.4282333 L13.5928333,15.4282333 C14.5891667,15.4282333 15.4,14.6176333 15.4,13.6210667 L15.4,7.37893333 C15.4,6.3826 14.5894,5.572 13.5928333,5.572 Z M10.4717667,13.7447333 C8.6828,13.7447333 7.22726667,12.2892 7.22726667,10.5 C7.22726667,8.71103333 8.6828,7.2555 10.4717667,7.2555 C12.2609667,7.2555 13.7165,8.71103333 13.7165,10.5 C13.7165,12.2889667 12.2607333,13.7447333 10.4717667,13.7447333 Z M13.8208,7.92633333 C13.3973,7.92633333 13.0529,7.58193333 13.0529,7.15866667 C13.0529,6.7354 13.3973,6.391 13.8208,6.391 C14.2440667,6.391 14.5884667,6.7354 14.5884667,7.15866667 C14.5884667,7.58193333 14.2440667,7.92633333 13.8208,7.92633333 Z" id="Shape"></path>
                                <path d="M10.4717667,8.62656667 C9.43903333,8.62656667 8.5981,9.46703333 8.5981,10.4997667 C8.5981,11.5329667 9.43903333,12.3736667 10.4717667,12.3736667 C11.5049667,12.3736667 12.3452,11.5329667 12.3452,10.4997667 C12.3452,9.46726667 11.5047333,8.62656667 10.4717667,8.62656667 Z" id="Shape"></path>
                                <path d="M10.4717667,0 C4.6886,0 0,4.6886 0,10.4717667 C0,16.2549333 4.6886,20.9435333 10.4717667,20.9435333 C16.2549333,20.9435333 20.9435333,16.2549333 20.9435333,10.4717667 C20.9435333,4.6886 16.2549333,0 10.4717667,0 Z M16.7708333,13.6210667 C16.7708333,15.3736333 15.3454,16.7990667 13.5928333,16.7990667 L7.3507,16.7990667 C5.59836667,16.7990667 4.1727,15.3736333 4.1727,13.6210667 L4.1727,7.37893333 C4.1727,5.6266 5.59836667,4.20093333 7.3507,4.20093333 L13.5928333,4.20093333 C15.3454,4.20093333 16.7708333,5.6266 16.7708333,7.37893333 L16.7708333,13.6210667 Z" id="Shape"></path>
                            </g>
                        </g>
                    </g>
                </g>
            </g>
        </g>
    </g>
</svg>