<?xml version="1.0" encoding="UTF-8"?>
<svg width="16px" height="21px" viewBox="0 0 16 21" version="1.1" xmlns="http://www.w3.org/2000/svg" xmlns:xlink="http://www.w3.org/1999/xlink">
    <!-- Generator: Sketch 47 (45396) - http://www.bohemiancoding.com/sketch -->
    <title>Group 27</title>
    <desc>Created with Sketch.</desc>
    <defs></defs>
    <g id="Page-1" stroke="none" stroke-width="1" fill="none" fill-rule="evenodd">
        <g id="Podushka" transform="translate(-1209.000000, -5337.000000)" fill-rule="nonzero" fill="#FFFFFF">
            <g id="Group-45" transform="translate(0.000000, 4021.000000)">
                <g id="Group-44">
                    <g id="Group-38" transform="translate(0.000000, 1299.000000)">
                        <g id="Group-27" transform="translate(1209.000000, 17.000000)">
                            <g id="minus-symbol">
                                <path d="M0.5555,1.45053659 C0.246,1.45053659 0,1.19085366 0,0.873804878 C0,0.556756098 0.246,0.304756098 0.5555,0.304756098 L15.15,0.304756098 C15.4595,0.304756098 15.7135,0.556756098 15.7135,0.873804878 C15.7135,1.19085366 15.4595,1.45104878 15.15,1.45104878 L0.5555,1.45104878 L0.5555,1.45053659 Z" id="Shape"></path>
                            </g>
                            <g id="up-arrow" transform="translate(2.250000, 4.097561)">
                                <path d="M11.2385,5.7744878 C11.4605,6.00190244 11.4605,6.35992683 11.2385,6.58734146 C11.024,6.80707317 10.667,6.80707317 10.453,6.58734146 L6.4295,2.46570732 L6.4295,16.0670488 C6.4295,16.3840976 6.1835,16.6360976 5.874,16.6360976 C5.5645,16.6360976 5.3105,16.3840976 5.3105,16.0670488 L5.3105,2.46519512 L1.295,6.58682927 C1.073,6.80656098 0.7155,6.80656098 0.5015,6.58682927 C0.2795,6.35941463 0.2795,6.00139024 0.5015,5.77397561 L5.4775,0.676609756 C5.692,0.456878049 6.049,0.456878049 6.263,0.676609756 L11.2385,5.7744878 Z" id="Shape"></path>
                            </g>
                        </g>
                    </g>
                </g>
            </g>
        </g>
    </g>
</svg>